<?xml version="1.0" standalone="no"?>
<!DOCTYPE svg PUBLIC "-//W3C//DTD SVG 20010904//EN"
 "http://www.w3.org/TR/2001/REC-SVG-20010904/DTD/svg10.dtd">
<svg version="1.0" xmlns="http://www.w3.org/2000/svg"
 width="2048.000000pt" height="2048.000000pt" viewBox="0 0 2048.000000 2048.000000"
 preserveAspectRatio="xMidYMid meet">
<metadata>
Created by potrace 1.16, written by Peter Selinger 2001-2019
</metadata>
<g transform="translate(0.000000,2048.000000) scale(0.100000,-0.100000)"
fill="#000000" stroke="none">
<path d="M0 10240 l0 -10240 10240 0 10240 0 0 10240 0 10240 -10240 0 -10240
0 0 -10240z m8311 1173 c7 -7 -19 -82 -80 -234 -50 -122 -89 -225 -87 -227 3
-2 39 24 82 58 112 89 215 157 302 198 74 35 81 37 182 37 124 -1 188 -23 243
-85 150 -165 141 -462 -29 -983 -14 -42 -24 -82 -22 -87 2 -6 50 66 108 160
241 391 420 644 604 857 52 60 113 122 135 137 107 74 217 72 256 -4 38 -73
12 -204 -95 -480 -146 -375 -184 -517 -185 -685 0 -113 5 -141 35 -173 54 -58
170 -6 345 157 76 70 263 322 285 384 44 127 73 167 118 167 37 0 72 -26 72
-54 0 -29 -14 -64 -102 -246 -120 -251 -146 -363 -93 -415 33 -34 61 -31 129
10 142 85 303 251 439 452 90 133 134 216 118 221 -22 7 -41 34 -41 56 0 32
53 108 113 162 52 47 153 104 183 104 28 0 9 -56 -56 -160 -73 -114 -81 -108
133 -109 82 -1 157 -6 168 -11 39 -21 22 -53 -126 -245 -163 -211 -252 -428
-198 -487 32 -36 87 -14 205 81 155 125 302 298 420 491 l68 113 -30 18 c-16
10 -30 27 -30 37 0 28 51 101 110 160 50 48 155 112 187 112 33 0 6 -68 -80
-201 l-36 -57 31 -6 c17 -3 93 -6 170 -6 77 0 148 -5 159 -10 33 -18 21 -52
-49 -143 -170 -224 -246 -355 -279 -480 -14 -55 -15 -66 -2 -92 19 -39 46 -42
106 -12 79 41 261 204 348 312 66 83 186 204 250 251 33 25 68 51 77 59 27 22
148 89 193 107 102 41 197 31 236 -24 34 -47 32 -129 -4 -190 -61 -105 -237
-217 -405 -259 -88 -22 -117 -22 -117 0 0 8 22 19 55 28 122 31 329 172 394
268 31 46 35 100 7 114 -39 21 -152 -31 -271 -127 -171 -136 -292 -314 -306
-451 -6 -56 -5 -60 28 -96 31 -34 41 -39 91 -43 30 -2 79 1 109 8 69 16 222
88 306 144 63 42 195 170 253 246 22 28 30 33 40 23 31 -30 -159 -247 -300
-342 -131 -89 -249 -131 -371 -131 -132 0 -217 35 -272 112 -18 25 -24 50 -27
105 -2 40 -5 73 -7 73 -1 0 -27 -25 -56 -57 -74 -79 -193 -172 -258 -201 -68
-32 -162 -36 -203 -9 -40 26 -59 72 -59 142 1 108 64 227 201 379 39 43 81 94
92 113 44 70 -1 110 -135 120 l-71 6 -142 -199 c-164 -229 -269 -354 -368
-437 -134 -112 -191 -140 -292 -141 -95 -1 -148 63 -140 169 8 107 70 221 204
369 154 170 145 215 -48 233 l-66 6 -25 -34 c-14 -19 -85 -119 -159 -223 -201
-284 -363 -444 -502 -495 -64 -23 -136 -27 -170 -9 -95 50 -102 167 -22 353 5
11 -54 -44 -130 -121 -77 -78 -162 -156 -188 -174 -75 -49 -151 -73 -219 -67
-66 6 -97 26 -130 82 -21 37 -23 51 -23 195 0 138 3 166 28 260 45 166 94 311
172 510 86 218 95 253 70 280 -28 31 -57 24 -124 -26 -189 -142 -550 -637
-822 -1128 -24 -44 -49 -81 -56 -83 -17 -6 -61 40 -69 72 -5 18 5 66 31 148
106 338 125 780 42 961 -34 74 -75 101 -152 101 -48 -1 -73 -7 -125 -34 -126
-65 -327 -213 -470 -348 -60 -56 -70 -71 -109 -170 -57 -142 -234 -505 -304
-624 -149 -255 -282 -372 -420 -372 -57 0 -62 2 -95 38 -34 37 -34 39 -30 109
6 81 29 135 110 249 109 154 354 427 586 653 l104 101 44 149 c24 82 47 160
51 174 6 23 4 22 -45 -14 -60 -44 -189 -93 -268 -102 -50 -6 -56 -5 -53 11 3
13 23 23 65 35 34 9 83 29 110 45 76 44 196 171 244 260 24 42 52 81 64 86 26
11 123 6 137 -8z m5187 -279 c34 -24 29 -67 -11 -98 -66 -51 -400 -201 -419
-190 -18 11 -3 27 93 95 122 86 207 155 232 186 22 27 71 31 105 7z m-2793
-219 c-14 -57 -52 -132 -79 -154 -35 -29 -152 15 -131 49 13 22 206 170 214
165 5 -2 3 -30 -4 -60z m-3506 -1524 l12 -28 92 4 c111 5 137 -8 222 -107 114
-133 118 -293 10 -360 -43 -26 -64 -17 -90 39 -10 23 -23 41 -30 41 -7 0 -20
-20 -29 -44 -43 -112 -210 -193 -336 -164 -44 10 -52 9 -70 -7 -19 -17 -22
-17 -37 -2 -15 15 -19 15 -55 -6 -34 -18 -40 -19 -48 -7 -6 8 -10 23 -10 33 0
26 -18 57 -33 57 -8 0 -26 -14 -43 -31 -16 -17 -83 -78 -149 -136 -66 -58
-126 -112 -134 -119 -18 -17 1 -25 154 -64 146 -38 294 -57 565 -75 l225 -14
51 24 c36 18 84 60 171 152 373 397 394 423 454 588 56 155 109 205 217 205
27 0 64 8 83 18 27 13 59 17 149 17 104 0 121 -3 172 -27 38 -18 62 -36 72
-57 9 -17 25 -35 37 -41 31 -17 59 -70 59 -112 0 -31 4 -38 20 -38 11 0 28 -4
38 -9 9 -6 29 -12 44 -15 34 -8 84 -50 104 -87 25 -48 54 -152 54 -192 0 -104
-49 -184 -128 -207 -37 -12 -44 -11 -62 5 -12 11 -20 31 -20 50 0 17 -6 40
-14 50 -14 19 -15 19 -27 -8 -7 -15 -28 -37 -48 -49 -47 -29 -185 -37 -260
-15 -61 18 -57 20 -147 -92 -69 -88 -130 -151 -199 -209 -38 -31 -47 -44 -37
-50 19 -13 379 -82 422 -82 45 0 200 36 360 84 206 61 418 172 462 244 12 19
50 68 85 109 35 41 64 82 65 91 0 10 3 35 5 57 8 67 7 167 -2 227 -4 31 -5 67
-2 80 11 44 67 115 129 164 79 63 97 73 129 74 30 0 39 -19 39 -87 l0 -41 35
9 c19 5 80 8 137 7 100 -3 102 -4 108 -28 4 -19 15 -27 45 -33 67 -15 70 -19
69 -83 -1 -40 -8 -73 -23 -102 -18 -35 -23 -63 -24 -135 -2 -80 -6 -98 -29
-137 -14 -25 -38 -56 -52 -69 -14 -14 -26 -33 -26 -43 0 -11 -24 -43 -54 -73
-69 -69 -119 -80 -204 -45 -49 21 -60 22 -96 11 -23 -6 -75 -18 -116 -26 -41
-9 -100 -20 -129 -26 -30 -6 -89 -30 -130 -53 -68 -37 -281 -133 -371 -166
-51 -19 -53 -23 -39 -70 l13 -42 260 5 c299 6 338 12 723 107 269 66 335 88
408 135 45 29 142 138 212 240 34 49 95 174 89 183 -3 5 4 36 14 69 15 49 18
79 13 152 -9 133 19 192 126 269 47 34 200 86 225 76 21 -8 30 -63 23 -148
-12 -148 -87 -246 -224 -291 l-52 -17 -35 -91 c-20 -51 -59 -132 -87 -182 -29
-49 -60 -106 -69 -125 -10 -19 -32 -52 -49 -74 -37 -46 -39 -60 -8 -51 50 15
127 75 142 112 9 21 24 47 34 58 17 20 28 50 50 150 23 99 101 161 243 196
134 33 162 15 123 -78 -16 -39 -9 -53 27 -53 34 0 184 -61 201 -82 11 -13 16
-30 13 -44 -5 -18 1 -26 31 -41 20 -10 41 -25 46 -34 14 -23 -17 -81 -79 -147
-31 -32 -54 -66 -54 -78 0 -32 -74 -137 -119 -168 -86 -60 -175 -54 -233 13
-18 21 -51 46 -72 55 -40 17 -58 36 -86 91 -13 26 -21 30 -64 33 -26 2 -69 -4
-94 -12 -58 -20 -65 -13 -13 13 26 14 59 21 96 21 l55 0 0 44 c0 35 -6 51 -28
76 -32 35 -41 30 -61 -30 -13 -42 -45 -65 -164 -119 -100 -46 -100 -47 -14 73
97 135 126 184 171 285 25 55 46 105 46 110 0 5 9 30 19 55 17 39 25 46 63 56
97 27 175 91 203 169 20 59 21 211 0 211 -19 0 -110 -116 -164 -208 -24 -41
-45 -71 -48 -69 -8 8 63 129 122 209 29 40 52 75 50 77 -7 6 -110 -31 -152
-55 -22 -13 -58 -47 -80 -76 l-38 -53 0 -125 c-1 -208 -33 -291 -202 -517
-124 -165 -150 -179 -503 -270 -428 -110 -540 -127 -838 -121 l-192 3 0 -27
c0 -15 4 -29 9 -33 11 -6 111 -18 294 -36 l128 -12 37 32 c60 52 98 64 177 59
53 -4 86 -13 133 -37 56 -28 70 -31 116 -26 120 15 718 -64 772 -102 16 -11
55 -33 87 -47 35 -17 67 -41 84 -64 15 -20 30 -41 35 -46 11 -13 78 36 78 57
0 10 5 27 11 39 15 29 5 33 -49 20 -37 -10 -55 -10 -82 -1 -31 11 -150 78
-150 84 0 1 53 8 118 14 64 6 164 16 222 22 121 11 185 26 365 81 124 37 134
39 225 33 146 -9 159 -12 196 -53 41 -45 58 -35 58 38 0 67 -11 77 -66 56 -36
-14 -59 -15 -141 -8 -89 8 -118 15 -106 26 2 2 56 41 119 87 110 81 118 84
179 89 l64 5 14 40 c19 56 49 83 110 101 45 13 53 19 53 39 0 13 -4 26 -8 29
-15 9 -146 -54 -179 -86 -18 -17 -36 -29 -39 -25 -12 12 27 46 82 72 85 40 79
58 -11 34 -79 -20 -94 -30 -106 -68 -20 -62 -52 -111 -87 -133 -18 -11 -70
-49 -114 -85 -155 -123 -356 -200 -588 -224 -128 -14 -489 -6 -720 15 -91 9
-238 19 -328 22 -162 7 -207 17 -135 30 170 29 391 84 539 134 100 34 106 35
78 15 -23 -16 -185 -68 -339 -110 -55 -15 -104 -31 -108 -35 -11 -10 48 -16
397 -40 344 -24 472 -25 627 -6 248 31 353 74 622 255 85 56 97 68 112 110 33
93 45 109 94 126 54 18 187 36 207 28 8 -3 19 -25 25 -49 11 -41 16 -46 75
-75 46 -21 71 -41 88 -67 17 -27 36 -42 73 -54 61 -22 125 -76 128 -109 3 -27
9 -27 71 0 44 20 109 73 125 102 7 14 5 28 -7 50 -11 23 -14 45 -10 78 4 25 6
72 6 103 -1 32 5 69 14 85 19 37 64 79 99 92 48 18 148 13 192 -9 32 -16 51
-19 100 -14 71 7 140 -9 155 -35 6 -13 6 -29 -2 -52 -10 -29 -9 -34 10 -50 12
-9 22 -25 22 -34 0 -24 -49 -166 -66 -193 -19 -28 -12 -39 29 -47 70 -15 75
-48 15 -100 -63 -55 -157 -96 -231 -102 -55 -4 -66 -2 -100 21 -21 14 -49 29
-62 32 -14 3 -28 10 -31 15 -3 5 -18 9 -34 9 -17 0 -49 5 -72 11 -39 11 -50 9
-122 -20 -107 -43 -118 -34 -17 13 56 26 90 37 109 33 15 -3 44 -8 65 -12 l37
-8 -6 34 c-7 35 -49 89 -69 89 -6 0 -22 -14 -34 -31 -21 -28 -51 -45 -189
-105 -34 -15 -54 -45 -34 -52 7 -2 12 -9 12 -16 0 -15 -125 -137 -157 -155
-30 -16 -29 -25 9 -72 55 -68 20 -88 -152 -91 -129 -1 -177 19 -220 94 -37 65
-56 87 -95 112 -16 11 -38 30 -47 42 -21 26 -36 30 -151 43 -82 10 -90 9 -169
-18 -179 -62 -401 -105 -612 -118 -58 -3 -106 -10 -106 -15 0 -5 21 -18 48
-29 43 -19 55 -20 148 -10 77 8 116 18 168 42 64 30 70 31 123 20 30 -6 79
-24 107 -41 57 -32 166 -140 166 -163 0 -8 -13 -20 -30 -26 -16 -5 -30 -14
-30 -18 0 -5 89 -38 198 -75 246 -83 355 -102 607 -102 189 -1 192 -1 501 68
60 14 163 29 227 35 117 10 176 29 207 66 7 9 13 42 14 79 1 47 6 69 19 84 10
11 20 41 23 67 2 25 11 57 20 70 24 36 92 65 155 65 75 0 114 -13 158 -53 29
-26 50 -35 89 -40 122 -14 176 -65 133 -125 l-21 -30 21 -26 21 -26 -49 -72
c-26 -39 -61 -84 -76 -99 l-28 -28 40 -28 c22 -16 43 -35 46 -43 16 -40 -131
-102 -240 -102 -89 0 -123 14 -190 82 -33 33 -66 60 -75 60 -8 0 -37 12 -65
26 -45 22 -57 25 -120 19 -38 -4 -131 -22 -205 -40 -74 -18 -192 -43 -262 -56
-87 -16 -128 -27 -128 -36 0 -7 7 -13 15 -13 41 0 242 -64 260 -82 l20 -21
-30 16 c-16 9 -78 28 -138 42 -109 25 -167 48 -167 65 0 12 70 32 254 70 82
17 160 36 175 42 27 11 193 30 273 32 36 1 52 -4 72 -23 14 -14 31 -21 40 -18
23 9 20 63 -5 104 -20 32 -22 33 -43 19 -53 -39 -84 -48 -211 -62 -74 -7 -180
-25 -237 -38 -305 -73 -404 -83 -648 -67 -203 14 -272 29 -495 110 -153 56
-215 75 -215 68 0 -2 8 -21 19 -41 16 -34 26 -41 87 -61 146 -46 219 -92 241
-150 68 -184 68 -183 50 -232 -10 -25 -15 -48 -13 -51 11 -10 73 10 101 32
l30 25 -37 38 c-34 35 -69 101 -68 127 1 6 12 -9 25 -34 13 -25 39 -61 59 -80
35 -33 38 -34 69 -21 52 22 83 24 113 8 19 -10 47 -13 84 -10 69 6 114 -21
148 -87 20 -38 23 -56 19 -122 -2 -51 -10 -85 -21 -103 -14 -21 -18 -50 -20
-121 -1 -82 -4 -96 -23 -115 -20 -21 -25 -22 -65 -10 -30 9 -43 10 -46 2 -2
-6 -10 -11 -18 -11 -12 0 -12 4 -3 21 9 17 17 20 42 16 18 -3 40 -8 49 -12 11
-4 20 0 27 14 15 26 26 167 15 173 -5 3 -37 9 -71 13 -69 8 -84 -4 -33 -25 38
-16 36 -44 -2 -48 -16 -2 -28 -11 -31 -24 -4 -16 -11 -19 -29 -15 -18 5 -28
-2 -50 -33 -16 -21 -28 -41 -28 -43 0 -3 16 -11 35 -17 19 -6 35 -16 35 -21 0
-14 -47 0 -128 38 -41 19 -75 33 -76 31 -1 -2 -9 -21 -17 -43 -12 -31 -21 -41
-41 -43 -22 -3 -33 5 -62 45 -77 105 -109 243 -72 308 10 17 28 48 41 70 13
22 24 52 24 66 1 15 8 43 16 63 17 40 15 57 -22 166 -31 89 -50 109 -158 160
-69 33 -155 60 -155 49 0 -2 7 -29 15 -59 22 -80 20 -98 -11 -106 -24 -6 -25
-9 -19 -56 5 -32 3 -53 -5 -63 -19 -23 -77 -29 -160 -16 -65 10 -82 9 -113 -4
-20 -8 -65 -15 -99 -15 -101 1 -181 48 -214 128 -11 25 -20 32 -42 32 -36 1
-102 32 -129 61 -26 29 -43 98 -36 145 5 31 3 35 -56 73 -113 73 -286 123
-534 156 -139 18 -193 19 -203 4 -3 -6 8 -30 25 -54 39 -55 91 -163 91 -191 0
-13 -8 -24 -20 -27 -29 -8 -25 -25 17 -60 92 -79 142 -136 154 -177 14 -45 33
-60 52 -41 6 6 19 11 28 11 14 0 59 65 59 85 0 3 -23 5 -51 5 -66 0 -100 21
-175 107 l-59 67 88 -72 c83 -67 98 -77 121 -73 4 1 31 -6 58 -15 49 -16 84
-16 191 2 69 11 125 -13 194 -82 66 -67 123 -155 123 -190 0 -27 -17 -34 -78
-34 l-47 0 4 -119 c3 -128 -4 -157 -41 -163 -18 -2 -24 -12 -31 -48 -5 -25
-14 -51 -20 -59 -17 -20 -95 -8 -159 25 -43 22 -68 28 -128 29 -61 1 -85 6
-125 28 -69 36 -90 55 -114 104 -27 55 -27 89 4 149 14 27 25 56 24 64 -4 48
5 71 41 113 l40 45 -17 47 c-19 49 -72 120 -112 150 -23 17 -24 17 -37 0 -7
-10 -15 -22 -16 -27 -6 -17 -84 -37 -149 -38 -52 0 -70 -4 -83 -19 -42 -46
-188 -66 -257 -37 -76 33 -109 80 -109 155 0 33 -7 62 -20 83 -24 40 -25 69
-4 113 15 33 15 35 -12 70 -32 42 -47 52 -134 81 -72 25 -53 32 24 9 57 -17
112 -49 120 -70 16 -44 86 29 86 89 0 41 -13 45 -62 20 -44 -23 -100 -19 -188
11 -95 32 -112 32 -109 3 1 -13 -1 -42 -5 -64 -5 -28 -2 -59 8 -93 23 -78 6
-122 -67 -168 -25 -16 -40 -33 -44 -53 -4 -25 -10 -30 -34 -30 -34 0 -44 -13
-24 -30 22 -18 18 -30 -9 -30 -25 0 -25 -1 -10 -35 16 -40 18 -74 4 -95 -8
-12 -15 -9 -42 21 -57 62 -76 74 -93 59 -8 -7 -15 -29 -15 -50 0 -108 -120
-242 -216 -242 -19 0 -43 7 -52 15 -11 9 -39 14 -78 15 -39 0 -78 7 -107 20
-47 21 -137 104 -137 125 0 7 31 39 68 73 67 60 122 146 122 189 0 11 -10 25
-22 30 -13 6 -37 33 -55 60 -17 28 -43 65 -57 84 -34 45 -33 72 3 92 16 10 40
39 54 67 l25 50 -52 50 c-62 60 -168 130 -254 166 -113 48 -470 126 -573 126
l-59 0 21 -52 c11 -29 27 -60 35 -68 12 -12 14 -12 14 7 0 31 17 37 48 17 20
-13 56 -20 138 -24 136 -8 168 -23 204 -97 l25 -51 50 5 c41 4 55 11 80 40 29
32 32 33 47 16 26 -30 57 -98 64 -141 8 -51 -10 -128 -51 -217 -42 -93 -86
-142 -138 -156 -23 -6 -59 -22 -79 -36 -37 -25 -49 -26 -133 -11 -13 2 -20 -3
-23 -17 -2 -11 -12 -27 -21 -35 -10 -8 -27 -29 -39 -46 -12 -18 -43 -42 -69
-54 -40 -19 -60 -21 -138 -18 -80 3 -99 7 -160 38 -45 22 -78 47 -92 68 -29
44 -38 104 -21 139 13 27 16 28 83 25 l68 -4 -16 24 c-31 42 -39 72 -39 133 1
85 34 168 94 231 26 28 48 54 48 57 0 3 -23 59 -50 125 l-51 119 -157 12 c-86
7 -211 19 -276 26 -65 8 -123 12 -127 9 -21 -12 -5 -231 27 -369 45 -199 44
-197 92 -250 54 -59 104 -137 120 -184 23 -66 15 -114 -34 -210 -25 -49 -52
-92 -60 -95 -15 -6 -36 13 -62 53 -9 14 -38 54 -63 88 -65 86 -76 140 -47 230
12 36 24 61 25 56 2 -6 -3 -28 -11 -48 -33 -77 -14 -145 71 -261 26 -35 48
-62 50 -61 1 2 3 61 4 133 1 102 -2 138 -16 171 -25 62 -13 75 15 17 21 -43
24 -61 22 -149 -1 -55 1 -120 4 -144 7 -53 17 -46 63 43 24 45 31 71 31 116 0
69 -17 103 -100 200 -30 36 -63 85 -72 110 -19 54 -63 254 -79 362 -14 92 -4
207 17 215 8 3 65 -2 127 -11 62 -9 183 -20 270 -26 87 -5 163 -12 168 -16 12
-7 60 -103 84 -167 15 -41 21 -47 39 -41 12 4 22 7 23 8 1 1 -14 33 -32 71
-19 39 -37 83 -41 99 -7 28 -6 29 22 22 16 -5 79 -11 139 -16 131 -9 386 -72
515 -127 102 -43 201 -106 255 -162 44 -46 59 -49 93 -21 l23 19 -33 31 c-136
127 -331 218 -595 280 -29 6 -53 16 -53 21 0 15 20 11 176 -35 164 -49 246
-83 312 -127 25 -17 89 -42 152 -59 l108 -31 27 25 c34 31 103 43 157 27 22
-7 61 -32 87 -55 70 -66 81 -69 148 -50 69 19 103 39 103 59 0 10 -11 15 -34
15 -47 0 -138 18 -151 31 -15 15 8 25 69 33 104 12 390 120 575 217 94 49 128
62 202 74 48 7 118 23 154 34 78 24 111 26 145 6 33 -19 113 -19 149 0 27 14
81 69 81 83 0 4 -26 7 -57 7 -45 0 -65 5 -90 24 -25 19 -36 22 -60 14 -24 -8
-65 -53 -75 -84 -5 -14 -186 -58 -270 -66 -87 -8 -87 0 -6 98 80 95 102 114
149 128 44 13 45 17 23 63 -14 30 -61 68 -85 68 -5 0 -9 -24 -9 -54 0 -59 3
-54 -127 -213 -40 -48 -89 -101 -109 -117 -68 -54 -207 -118 -370 -172 -219
-72 -348 -98 -438 -91 -106 9 -416 80 -416 96 0 4 53 60 118 126 134 136 222
239 222 261 0 9 -11 14 -31 14 -34 0 -41 -7 -129 -120 -93 -118 -170 -191
-237 -222 -72 -34 -91 -34 -263 0 -58 12 -140 24 -182 27 -43 4 -78 10 -78 14
0 3 30 36 66 71 36 36 83 88 104 115 21 28 53 66 70 85 l32 35 -28 -40 c-39
-56 -146 -184 -183 -219 -17 -17 -31 -33 -31 -36 0 -4 37 -10 83 -12 45 -3
133 -16 195 -29 98 -20 118 -22 158 -11 63 17 143 72 196 135 101 120 168 213
168 233 0 3 -15 4 -32 2 -50 -8 -57 -2 -51 42 3 22 3 40 0 40 -3 0 -24 -16
-47 -35 -61 -51 -97 -48 -153 10 l-43 46 -65 -21 c-35 -11 -79 -29 -98 -40
-41 -26 -53 -20 -14 7 25 18 152 73 168 73 4 0 30 -20 58 -45 64 -56 88 -57
146 -7 42 37 43 39 36 81 l-7 43 -47 -5 c-25 -4 -59 -9 -76 -12 -52 -11 2 17
58 30 26 6 48 14 47 18 0 4 0 13 0 21 0 8 -15 19 -34 26 -43 14 -70 4 -141
-55 -31 -25 -60 -45 -65 -45 -20 0 -9 16 26 40 22 14 44 42 55 66 20 49 36 59
102 67 65 9 106 32 122 69 34 83 -53 141 -120 81 -28 -26 -79 -57 -71 -44 4 6
27 25 52 41 24 17 44 36 44 42 0 6 14 27 32 47 31 34 31 36 10 39 -34 5 -107
-32 -135 -69 -13 -19 -39 -70 -57 -114 -17 -44 -38 -94 -45 -111 -40 -93 -506
-607 -590 -651 -50 -26 -519 -5 -691 31 -223 48 -359 88 -352 106 2 5 64 61
138 127 213 187 234 212 186 221 -11 3 -48 -29 -104 -88 -87 -93 -219 -203
-279 -234 -44 -22 -66 -21 -212 14 -69 16 -191 39 -271 50 -184 27 -410 79
-615 140 -178 54 -344 103 -421 125 -57 17 -144 20 -128 6 5 -5 23 -11 39 -13
l30 -4 -28 -8 c-32 -9 -57 6 -57 35 0 15 7 19 34 19 34 0 202 -42 406 -101
365 -107 481 -135 722 -174 84 -13 220 -39 302 -56 l148 -32 52 25 c54 27 199
151 305 262 l63 66 -18 28 c-50 77 -55 107 -24 165 26 49 26 55 -12 94 -27 28
-39 33 -80 33 -36 0 -48 4 -48 15 0 20 56 131 70 140 21 13 22 -4 3 -32 -11
-15 -25 -42 -31 -59 -10 -31 -10 -32 27 -38 23 -3 48 -17 66 -36 34 -35 48
-37 82 -11 13 11 58 27 99 37 71 15 78 15 120 -1 25 -9 47 -15 50 -12 11 11
-50 66 -106 96 -34 18 -59 35 -57 38 8 8 81 -27 119 -57 20 -17 39 -30 42 -30
3 0 6 20 6 45 0 34 5 47 20 55 17 9 22 7 30 -15 6 -15 10 -31 10 -36 0 -15 20
-10 26 6 3 8 14 17 25 20 14 5 18 12 13 31 -9 34 11 30 25 -5z m-2304 -534
c11 -3 110 -33 220 -66 182 -55 849 -221 888 -221 23 0 45 -32 112 -164 l60
-117 -3 -100 c-2 -74 2 -109 13 -133 16 -34 92 -112 101 -103 6 6 -21 117 -42
170 -11 30 -12 38 -2 35 12 -4 49 -104 63 -170 14 -67 51 6 42 82 -10 79 -52
148 -102 164 -14 4 -43 54 -94 162 -40 85 -72 157 -69 159 2 2 44 -9 93 -24
50 -16 131 -37 180 -46 255 -46 246 -41 233 -136 -8 -64 -5 -117 28 -397 9
-74 14 -136 11 -139 -16 -16 -60 314 -61 465 -1 134 -2 143 -21 148 -11 2 -99
22 -195 43 -96 22 -187 42 -202 46 -35 9 -35 3 -2 -71 66 -152 76 -169 119
-195 91 -57 129 -185 85 -287 -30 -69 -48 -68 -118 6 -76 79 -84 103 -76 212
8 105 -3 145 -71 250 -23 36 -49 77 -58 91 -13 22 -30 30 -94 44 -357 77
-1006 254 -1073 292 -25 14 -22 14 35 0z m7149 -1387 c133 -13 217 -25 231
-34 12 -8 69 -61 127 -118 102 -100 105 -105 117 -163 18 -98 30 -106 188
-130 40 -6 43 -5 49 21 10 41 -12 135 -38 161 -13 12 -45 27 -73 34 -147 35
-154 38 -228 106 -102 93 -104 97 -28 89 34 -4 119 -23 189 -42 103 -28 131
-39 150 -62 12 -15 47 -52 77 -83 52 -53 55 -59 55 -106 0 -27 3 -53 6 -56 11
-11 65 26 80 55 22 42 17 52 -35 71 -34 12 -60 30 -85 61 -49 60 -45 67 10 16
25 -23 66 -51 91 -62 l45 -20 27 25 c39 39 81 57 113 50 21 -4 39 2 68 22 33
23 47 27 82 22 100 -13 172 -108 174 -232 1 -50 9 -87 28 -132 28 -68 34 -124
13 -141 -6 -6 -28 -12 -47 -14 -27 -2 -36 -8 -38 -25 -3 -17 -10 -23 -30 -23
-15 0 -22 4 -16 8 6 4 14 17 18 29 5 16 18 24 44 28 65 11 65 12 58 57 -4 22
-16 63 -28 90 -21 49 -22 50 -57 43 -20 -4 -52 -14 -71 -23 l-35 -16 40 -5
c32 -5 41 -11 43 -28 2 -13 -1 -24 -7 -24 -6 -1 -17 -2 -23 -3 -8 -1 -12 -12
-10 -29 3 -21 -1 -27 -16 -27 -13 0 -22 -11 -30 -39 -16 -53 -15 -59 11 -64
12 -2 -10 -5 -49 -6 -39 0 -85 -4 -101 -7 -29 -6 -30 -5 -45 55 -9 37 -11 66
-6 76 5 8 8 27 6 42 -2 20 -12 29 -42 40 -52 17 -71 36 -93 89 -10 24 -21 44
-25 44 -23 0 -48 -43 -48 -83 0 -43 9 -55 98 -124 8 -7 13 -15 10 -18 -3 -3
-27 12 -52 35 -26 22 -51 40 -56 40 -38 0 -19 -96 31 -160 24 -31 34 -50 25
-50 -17 0 -62 58 -82 107 -11 25 -14 51 -9 82 14 98 3 241 -22 286 -6 11 -40
47 -75 81 -62 60 -64 61 -183 91 -150 39 -185 45 -185 33 0 -5 23 -31 51 -58
45 -44 59 -51 142 -71 126 -31 154 -46 180 -95 23 -45 31 -166 12 -185 -13
-13 -187 21 -221 44 -29 19 -39 41 -48 110 -10 67 -31 95 -147 193 l-98 83
-213 21 c-117 11 -223 20 -235 20 -13 0 -23 4 -23 9 0 13 27 11 264 -11z"/>
<path d="M7783 10477 c-193 -195 -426 -470 -490 -577 -49 -82 -54 -162 -10
-176 127 -43 334 225 556 720 34 76 60 140 58 142 -2 2 -53 -47 -114 -109z"/>
<path d="M8413 9372 c-43 -17 -103 -65 -103 -81 0 -5 11 -16 25 -25 14 -9 36
-37 47 -62 16 -31 27 -43 37 -39 69 27 187 2 243 -52 28 -26 28 -26 28 -4 0
30 -26 80 -63 118 -17 18 -28 35 -25 38 7 7 82 -82 91 -107 10 -27 22 -22 32
15 8 25 16 33 38 35 27 3 28 2 21 -32 -6 -34 6 -50 21 -26 3 6 17 10 31 10 42
0 24 67 -26 97 -18 10 -37 32 -45 49 -7 18 -27 37 -48 47 -81 39 -232 48 -304
19z"/>
<path d="M7334 9331 c22 -25 15 -36 -29 -51 -48 -16 -46 -40 3 -40 42 0 146
-25 171 -41 14 -9 14 -10 -1 -5 -9 3 -65 12 -124 21 -100 15 -108 15 -126 -1
-10 -10 -17 -22 -15 -27 1 -5 29 -23 62 -40 38 -21 67 -44 80 -66 11 -19 40
-53 63 -75 24 -23 50 -53 58 -68 8 -16 19 -28 25 -28 6 0 29 18 51 40 39 39
40 41 36 98 -10 140 -139 301 -242 302 -28 0 -29 -1 -12 -19z"/>
<path d="M9814 9312 c-130 -71 -204 -169 -204 -269 0 -46 21 -43 79 12 26 25
51 45 55 45 13 0 -33 -52 -74 -84 -34 -26 -40 -36 -40 -69 0 -87 60 -132 79
-59 14 50 52 91 98 107 50 17 61 35 45 79 -10 26 -10 45 -3 73 12 43 15 183 4
183 -5 -1 -22 -9 -39 -18z"/>
<path d="M6900 9238 c-77 -12 -120 -37 -157 -92 -53 -78 -46 -122 36 -229 28
-36 59 -83 68 -104 10 -21 18 -39 19 -41 1 -2 14 4 29 14 21 13 31 15 50 6 15
-7 26 -8 30 -2 4 6 39 8 88 4 97 -8 146 4 213 49 94 62 116 133 69 213 -20 34
-39 50 -90 74 -35 17 -67 35 -70 40 -3 6 -22 10 -42 10 -46 0 -83 -40 -115
-120 -25 -65 -44 -81 -33 -27 9 38 27 82 52 119 17 27 17 28 -7 53 -34 34 -74
43 -140 33z"/>
<path d="M10037 9213 c-2 -5 2 -31 10 -59 13 -46 17 -50 40 -46 24 4 25 3 18
-27 -6 -27 -4 -31 14 -31 24 0 43 -30 32 -49 -5 -7 -22 -11 -39 -10 -51 6 -39
-15 19 -33 30 -9 61 -17 70 -17 28 -1 80 167 62 196 -5 6 -28 13 -52 15 -43 3
-53 11 -65 51 -4 13 -16 17 -55 17 -27 0 -52 -3 -54 -7z"/>
<path d="M9992 9178 c-5 -7 -13 -24 -17 -38 -17 -58 -55 -92 -55 -50 0 13 -7
20 -20 20 -17 0 -20 -7 -20 -47 0 -43 3 -50 31 -65 56 -32 89 -24 137 34 50
60 47 78 -4 25 -47 -48 -76 -49 -39 -1 21 28 18 40 -5 19 -11 -10 -23 -16 -26
-12 -9 8 15 73 32 87 15 14 19 40 5 40 -5 0 -13 -6 -19 -12z"/>
<path d="M8425 9146 c-49 -21 -94 -65 -104 -101 -6 -24 -5 -53 5 -97 8 -35 17
-93 21 -130 l6 -68 33 0 c18 0 40 -7 48 -16 9 -8 22 -14 29 -11 6 2 43 -12 82
-32 62 -32 78 -36 145 -36 58 0 85 5 118 23 70 37 99 107 72 177 -17 45 -122
155 -148 155 -34 0 -81 -27 -129 -73 -24 -22 -46 -38 -50 -34 -4 4 23 37 61
72 54 51 66 68 61 85 -11 35 -46 60 -113 80 -74 23 -96 24 -137 6z"/>
<path d="M8978 9058 c-2 -17 -10 -23 -28 -24 -51 -2 -60 -4 -60 -13 0 -6 27
-24 59 -41 33 -18 70 -43 82 -56 16 -17 -7 -7 -73 31 -53 30 -101 55 -105 55
-5 0 -18 -6 -29 -14 -18 -14 -17 -16 23 -55 40 -39 63 -88 63 -138 0 -12 9
-37 19 -55 11 -18 23 -50 26 -70 6 -33 11 -38 34 -38 32 0 86 32 101 61 7 11
16 49 21 83 8 53 6 72 -18 148 -34 114 -105 192 -115 126z"/>
<path d="M9845 8983 c-11 -2 -33 -9 -48 -15 -61 -24 -90 -153 -44 -195 33 -30
58 -33 179 -17 61 8 113 13 115 11 7 -7 -118 -36 -192 -44 l-70 -8 25 -22 c18
-17 36 -23 72 -23 30 0 60 -7 80 -20 22 -13 51 -20 87 -20 51 0 57 3 95 43 39
40 66 99 81 174 13 65 -53 100 -205 109 -47 3 -99 12 -117 20 -17 8 -33 13
-35 13 -1 -1 -12 -3 -23 -6z"/>
<path d="M11018 8860 c-83 -22 -132 -51 -169 -103 -30 -41 -39 -87 -16 -87 6
0 36 9 65 20 58 22 82 26 66 10 -5 -5 -41 -20 -79 -33 -67 -23 -71 -26 -84
-66 -14 -45 -8 -89 14 -97 8 -3 32 13 58 40 43 45 45 46 106 46 57 0 62 2 71
26 6 14 10 34 10 45 0 11 14 40 31 65 29 42 49 83 63 132 7 20 4 22 -31 21
-21 0 -68 -9 -105 -19z"/>
<path d="M12765 8716 c-58 -35 -76 -72 -74 -148 1 -35 -2 -75 -6 -90 -8 -30 0
-78 13 -78 5 0 30 43 56 95 26 52 51 95 57 95 5 0 -6 -30 -24 -67 -50 -99 -60
-135 -47 -168 13 -35 35 -52 78 -60 81 -15 143 39 141 122 -1 26 6 65 15 85 9
21 19 71 22 110 6 64 4 76 -14 98 -18 22 -29 25 -99 28 -68 3 -83 0 -118 -22z"/>
<path d="M9713 8706 c-50 -18 -118 -70 -162 -126 -47 -60 -50 -70 -17 -70 24
0 256 46 260 52 45 69 45 77 8 109 -53 47 -55 47 -89 35z"/>
<path d="M13053 8703 c-29 -4 -33 -8 -33 -36 0 -18 -3 -49 -6 -69 -8 -47 9
-51 22 -5 13 43 47 45 54 2 3 -16 10 -29 15 -28 6 1 16 -3 23 -9 9 -8 9 -14 1
-25 -7 -7 -10 -15 -8 -16 2 -2 23 -15 46 -29 l41 -27 10 27 c23 61 24 70 2 82
-19 10 -21 17 -15 64 6 43 4 54 -9 59 -24 9 -107 15 -143 10z"/>
<path d="M11270 8676 c0 -13 -3 -38 -6 -55 -6 -27 -4 -31 15 -31 23 0 30 -35
9 -43 -9 -4 -5 -12 11 -25 43 -35 3 -79 -44 -48 -48 31 -33 -1 22 -47 l55 -47
40 31 c45 36 88 99 88 129 0 15 -11 26 -37 37 -46 18 -53 29 -46 64 4 23 0 28
-36 43 -57 22 -71 21 -71 -8z"/>
<path d="M11186 8650 c-42 -43 -63 -47 -58 -11 4 39 -38 22 -55 -21 -14 -34
-13 -38 8 -67 30 -41 84 -59 108 -37 10 9 25 16 33 16 19 0 68 39 50 40 -7 0
-27 -7 -43 -16 -17 -8 -40 -14 -52 -12 -19 3 -17 7 17 28 39 24 36 41 -4 20
-12 -6 -24 -9 -28 -6 -8 9 49 66 76 77 13 5 20 13 17 19 -11 18 -30 10 -69
-30z"/>
<path d="M10924 8560 c-30 -12 -72 -70 -80 -108 -7 -36 12 -74 48 -94 13 -6
66 -24 118 -39 109 -32 82 -39 -32 -9 -41 11 -83 22 -92 26 -11 4 -16 1 -16
-14 0 -23 53 -72 78 -72 9 0 35 -21 58 -47 l42 -48 70 0 71 0 55 54 c31 30 63
71 72 90 16 32 15 37 0 66 -20 36 -125 108 -186 126 -23 7 -48 22 -56 34 -26
40 -97 57 -150 35z"/>
<path d="M12006 8459 c-30 -23 -56 -69 -56 -97 0 -10 -11 -24 -24 -31 -27 -15
-46 -50 -46 -87 0 -23 3 -22 63 24 34 27 73 55 85 61 47 25 30 4 -39 -47 -107
-81 -125 -144 -56 -196 59 -44 187 -18 187 37 0 15 17 38 49 66 28 23 60 58
72 77 26 43 37 39 12 -4 -10 -17 -14 -34 -9 -39 5 -4 11 -2 13 5 8 22 33 41
48 36 20 -8 27 -34 14 -50 -9 -11 -8 -19 5 -33 15 -16 15 -20 2 -31 -14 -10
-13 -17 4 -50 11 -21 24 -41 29 -44 10 -7 71 49 71 65 0 5 -6 18 -12 29 -11
17 -8 24 18 52 17 18 29 40 27 48 -5 20 -77 67 -126 82 -32 10 -39 9 -50 -6
-12 -16 -13 -13 -9 19 3 28 -1 42 -19 62 -62 67 -198 95 -253 52z"/>
<path d="M12943 8318 c-37 -36 -48 -42 -97 -46 -63 -5 -73 -23 -33 -60 41 -38
70 -38 141 2 35 20 70 36 78 36 7 0 -16 -17 -51 -38 -35 -20 -66 -42 -68 -48
-2 -6 8 -16 22 -22 63 -29 154 -3 261 74 l67 47 -22 18 c-23 19 -103 39 -155
39 -20 0 -40 8 -51 20 -27 29 -45 25 -92 -22z"/>
<path d="M11760 8299 c-25 -21 -71 -58 -102 -81 -32 -24 -58 -46 -58 -50 0 -5
40 -8 90 -8 65 0 99 5 125 18 36 18 40 25 50 105 6 42 4 47 -14 47 -10 0 -25
2 -33 5 -7 2 -33 -14 -58 -36z"/>
<path d="M7384 8155 c-3 -20 -13 -37 -24 -40 -10 -3 -20 -18 -24 -33 -4 -16
-23 -39 -49 -57 -29 -21 -52 -50 -74 -94 -28 -55 -33 -75 -33 -135 0 -39 6
-82 13 -95 35 -68 132 -90 219 -48 29 13 65 28 80 31 56 13 61 89 13 193 -14
32 -20 53 -12 50 11 -3 49 -71 72 -127 8 -19 19 -26 47 -28 30 -3 42 3 72 33
40 40 86 123 86 155 0 50 -25 112 -59 150 l-36 40 -112 3 c-83 3 -118 8 -137
20 -34 22 -34 22 -42 -18z"/>
<path d="M8470 8133 c-26 -10 -68 -54 -81 -84 -7 -19 -29 -38 -62 -55 -60 -30
-86 -55 -111 -111 -10 -22 -29 -46 -42 -52 -13 -6 -24 -16 -24 -22 0 -20 108
-177 132 -193 63 -40 164 -24 253 39 28 19 60 35 72 35 13 0 23 5 23 10 0 6
-6 10 -13 10 -30 0 -155 70 -185 104 -48 55 -38 62 16 9 51 -50 151 -103 193
-103 30 0 77 42 85 77 8 30 -31 181 -62 245 -13 25 -38 56 -55 69 -31 22 -109
35 -139 22z"/>
<path d="M8939 8104 c-25 -41 -73 -74 -107 -74 -60 0 -111 -63 -97 -117 4 -16
9 -52 12 -81 4 -46 2 -57 -17 -77 -31 -33 -17 -48 36 -42 39 4 82 25 154 74
l25 17 -19 -22 c-10 -12 -41 -36 -69 -54 -55 -35 -49 -46 18 -29 65 16 77 15
73 -11 -2 -18 -11 -24 -35 -26 -17 -2 -36 -9 -42 -16 -8 -10 0 -13 38 -14 39
-1 53 4 71 23 32 34 41 86 24 148 -8 31 -14 99 -13 167 0 100 -10 170 -25 170
-2 0 -14 -16 -27 -36z"/>
<path d="M11897 8073 c-14 -13 -6 -66 14 -94 20 -28 23 -29 107 -29 60 0 82
-3 72 -10 -8 -5 -43 -10 -77 -10 -35 0 -63 -4 -63 -9 0 -19 61 -70 96 -81 24
-8 71 -11 133 -7 101 5 131 12 131 30 0 14 -108 115 -130 122 -9 3 -24 21 -33
40 -19 39 -32 42 -94 20 -37 -13 -47 -13 -84 0 -23 9 -48 20 -54 25 -7 5 -15
7 -18 3z"/>
<path d="M7912 8039 c-20 -18 -43 -29 -61 -29 -49 0 -61 -9 -61 -46 0 -64 -85
-196 -135 -208 -14 -4 -25 -11 -25 -16 0 -18 69 -10 142 15 40 14 67 20 61 14
-6 -6 -46 -23 -87 -38 l-76 -27 30 -22 c32 -24 39 -52 16 -71 -10 -9 -16 -8
-26 4 -23 28 -37 17 -37 -30 0 -44 1 -45 31 -45 18 0 50 13 75 30 24 17 56 30
71 30 16 0 37 12 57 33 64 67 132 244 118 308 -8 37 -42 116 -53 123 -4 2 -22
-9 -40 -25z"/>
<path d="M9548 8050 c-43 -23 -48 -36 -15 -46 46 -14 130 -54 124 -60 -3 -3
-40 9 -83 26 -44 17 -88 29 -99 26 -34 -9 -75 -52 -75 -80 0 -24 3 -25 58 -24
61 1 104 -15 136 -51 26 -28 42 -26 83 9 18 17 42 30 52 30 36 0 122 31 148
55 28 23 28 24 8 40 -11 9 -52 32 -91 51 -93 46 -190 55 -246 24z"/>
<path d="M13370 8053 c-62 -20 -90 -57 -90 -116 0 -20 -9 -46 -21 -61 -23 -30
-37 -100 -21 -110 6 -3 19 9 31 26 22 36 121 137 121 124 0 -4 -25 -36 -55
-69 -66 -74 -82 -115 -65 -158 40 -96 230 -65 230 38 0 12 18 50 39 83 36 55
61 130 61 181 0 30 -90 69 -160 68 -30 0 -62 -3 -70 -6z"/>
<path d="M9905 8000 c-12 -19 46 -38 202 -69 197 -39 359 -89 474 -146 79 -40
90 -43 145 -38 41 4 70 1 96 -10 21 -9 40 -12 43 -7 3 4 -7 28 -21 54 -21 37
-40 54 -105 90 -78 44 -84 46 -307 81 -125 20 -279 38 -342 41 -63 3 -130 7
-147 9 -18 2 -35 0 -38 -5z"/>
<path d="M13601 7910 c-14 -62 -9 -92 8 -48 5 14 16 28 25 31 20 8 39 -18 31
-43 -4 -14 -1 -22 10 -26 12 -5 15 -14 12 -34 -5 -22 1 -34 27 -59 l34 -33 26
35 c29 38 33 62 11 71 -20 7 -19 28 5 69 20 33 20 34 1 51 -23 21 -102 46
-146 46 -30 0 -31 -2 -44 -60z"/>
<path d="M11148 7939 c-28 -16 -22 -27 36 -64 30 -19 58 -40 62 -47 11 -18
-19 -3 -86 42 -32 22 -67 40 -78 40 -29 0 -87 -43 -90 -67 -3 -18 3 -23 35
-28 59 -9 105 -36 132 -77 27 -43 47 -47 84 -18 19 15 40 20 91 20 76 0 156
19 156 36 0 21 -108 111 -171 143 -65 32 -136 41 -171 20z"/>
<path d="M9910 7926 c-13 -17 -12 -17 150 -36 236 -28 517 -120 569 -187 16
-19 21 -41 21 -82 0 -91 39 -139 121 -148 43 -5 45 -4 58 32 20 55 -1 118 -47
139 -42 21 -35 34 9 16 26 -11 32 -11 40 1 30 48 -19 75 -116 65 -49 -5 -66
-3 -72 7 -11 19 -36 31 -149 72 -139 49 -249 80 -395 109 -146 30 -172 31
-189 12z"/>
<path d="M9403 7854 c-63 -31 -56 -106 18 -220 28 -42 48 -78 46 -81 -6 -6
-96 115 -115 155 -9 17 -19 32 -23 32 -28 0 -28 -83 0 -121 15 -20 19 -37 15
-54 -33 -131 146 -221 294 -148 30 15 38 24 40 51 5 47 -14 128 -45 192 -14
30 -27 74 -28 98 -4 88 -113 140 -202 96z"/>
<path d="M9670 7815 c-7 -8 -18 -15 -25 -15 -7 0 -15 -18 -18 -42 -8 -52 15
-89 59 -99 16 -4 44 -12 62 -18 25 -7 32 -7 29 2 -2 6 -20 16 -40 22 -20 6
-42 16 -49 24 -11 11 -6 13 30 8 46 -6 58 7 17 17 -35 9 -23 23 25 31 27 5 46
3 56 -6 10 -9 18 -9 26 -1 20 20 -1 29 -56 24 -30 -2 -63 -2 -72 2 -15 6 -15
8 2 27 16 17 16 22 4 29 -21 14 -36 12 -50 -5z"/>
<path d="M10962 7775 c-63 -27 -64 -79 -7 -225 19 -46 32 -86 30 -88 -6 -7
-62 110 -81 171 -10 31 -21 57 -25 57 -26 0 -38 -84 -18 -121 8 -15 6 -31 -7
-65 -34 -89 14 -158 131 -189 108 -28 165 -17 184 36 15 44 14 122 -4 194 -8
33 -12 76 -9 96 17 105 -90 179 -194 134z"/>
<path d="M9826 7703 c-23 -21 -35 -38 -28 -41 7 -2 12 -12 12 -23 0 -13 -7
-19 -24 -19 -20 0 -23 -4 -22 -37 1 -32 -2 -38 -19 -38 -13 0 -25 11 -34 33
-17 36 -36 44 -28 10 3 -13 9 -47 13 -77 l7 -54 73 6 c40 3 86 11 101 19 29
14 31 26 17 96 -5 25 -2 36 11 46 13 10 16 20 11 40 -8 31 -35 76 -45 76 -3 0
-24 -17 -45 -37z"/>
<path d="M11209 7683 c-25 -6 -40 -63 -28 -106 5 -20 14 -37 20 -37 5 0 27
-12 49 -26 21 -14 45 -24 52 -21 7 2 -8 17 -34 33 -49 29 -64 51 -28 40 11 -3
29 -9 40 -12 11 -4 20 -2 20 4 0 5 -9 12 -20 15 -11 3 -20 10 -20 16 0 16 60
13 92 -3 16 -9 30 -11 33 -5 12 18 -7 29 -48 29 -23 0 -51 8 -62 16 -19 15
-19 16 -1 29 34 26 -7 44 -65 28z"/>
<path d="M8546 7635 c-64 -45 -136 -69 -192 -62 -29 3 -44 1 -44 -7 0 -6 -13
-38 -29 -71 -26 -55 -79 -115 -140 -157 l-23 -16 33 -42 c56 -69 91 -85 191
-85 74 0 88 -3 92 -17 5 -22 65 -24 104 -4 61 32 131 135 132 194 0 28 0 28
-52 -7 -24 -16 -57 -32 -73 -36 -22 -5 -16 1 25 25 58 33 114 82 132 114 9 17
5 25 -25 50 -25 23 -39 47 -51 88 -9 31 -20 59 -24 62 -5 3 -30 -10 -56 -29z"/>
<path d="M13460 7633 c-31 -22 -42 -24 -102 -20 l-68 4 0 -27 c0 -19 10 -37
31 -54 35 -30 46 -31 113 -11 27 8 59 15 70 14 12 0 -10 -11 -48 -22 -38 -12
-71 -28 -73 -34 -9 -25 59 -53 128 -53 70 0 179 28 214 55 20 15 19 15 -11 44
-18 16 -56 38 -86 49 -30 11 -69 34 -86 51 -17 17 -34 31 -39 30 -4 0 -24 -12
-43 -26z"/>
<path d="M7402 7623 c-46 -22 -58 -23 -100 -15 -26 6 -85 7 -132 4 l-85 -7 -3
-45 c-7 -101 84 -161 254 -168 77 -3 97 -1 131 16 22 11 45 28 52 36 12 14 10
16 -9 16 -21 0 -22 3 -16 50 8 63 -5 65 -59 9 -42 -42 -103 -85 -111 -77 -2 3
12 18 33 33 79 58 133 118 133 147 0 35 -16 35 -88 1z"/>
<path d="M11364 7545 c-35 -21 -41 -29 -36 -50 4 -21 1 -25 -21 -25 -21 0 -26
-6 -29 -27 -2 -22 -8 -28 -28 -28 -20 0 -26 6 -28 30 -7 60 -20 45 -27 -29 -4
-42 -5 -80 -2 -83 4 -3 47 -8 96 -11 109 -6 123 1 110 56 -13 55 -11 61 16 68
20 5 25 12 24 38 -1 41 -12 79 -24 83 -6 1 -29 -8 -51 -22z"/>
<path d="M10408 7423 c-10 -2 -18 -8 -18 -11 0 -4 23 -33 50 -65 28 -32 50
-61 50 -63 0 -12 -40 25 -79 72 -39 48 -47 54 -82 54 -44 0 -85 -16 -93 -37
-8 -21 -1 -30 31 -38 47 -11 91 -52 104 -95 17 -57 31 -66 79 -51 31 9 46 9
72 -2 18 -8 66 -15 106 -16 65 -2 72 0 72 17 0 20 -64 118 -109 165 -45 49
-134 83 -183 70z"/>
<path d="M10153 7294 c-26 -26 -26 -26 -20 -151 3 -69 1 -121 -3 -116 -13 14
-30 111 -30 173 0 65 -6 72 -36 39 -13 -14 -19 -37 -20 -76 -1 -30 -6 -58 -11
-62 -20 -13 -33 -51 -33 -98 0 -95 82 -163 206 -171 l61 -4 28 56 c21 43 28
76 33 143 3 53 10 93 19 101 17 18 17 74 -1 117 -29 69 -143 98 -193 49z"/>
<path d="M11988 7249 c-20 -11 -24 -29 -7 -29 16 0 128 -58 157 -81 36 -28 20
-23 -66 20 -112 56 -135 59 -170 24 -79 -78 -28 -206 82 -208 23 -1 72 -11
110 -23 85 -28 155 -29 187 -3 31 25 39 131 15 195 -27 71 -56 91 -134 92 -37
0 -80 6 -95 12 -34 14 -56 15 -79 1z"/>
<path d="M10380 7146 c0 -7 -7 -19 -15 -26 -19 -16 -21 -100 -2 -100 7 0 27
-16 46 -35 18 -19 37 -35 42 -35 14 0 0 21 -33 48 -15 13 -28 30 -28 38 0 19
7 18 37 -6 32 -25 43 -18 18 10 -10 11 -16 22 -14 24 7 7 77 -21 94 -38 20
-20 35 -21 35 -2 0 8 -19 21 -42 31 -70 28 -98 65 -48 65 13 0 17 5 13 20 -4
17 -14 20 -54 20 -35 0 -49 -4 -49 -14z"/>
<path d="M11781 7129 c-35 -38 -35 -70 -1 -138 18 -34 30 -65 27 -68 -3 -3
-20 22 -36 56 -17 34 -35 61 -40 61 -15 0 -36 -63 -34 -105 1 -22 11 -65 23
-95 25 -64 88 -152 104 -147 17 5 55 107 56 148 0 21 7 42 16 50 9 7 20 24 25
38 9 21 4 30 -31 66 -36 36 -42 49 -47 98 -5 46 -9 57 -24 57 -10 0 -27 -10
-38 -21z"/>
<path d="M10519 6988 c-42 -9 -46 -12 -41 -35 5 -25 3 -26 -27 -20 -26 5 -31
3 -31 -12 0 -24 -25 -45 -45 -37 -10 3 -15 19 -15 46 0 22 -4 40 -8 40 -7 0
-52 -124 -52 -142 0 -12 148 -59 176 -56 26 3 30 8 34 43 7 52 16 65 46 65 23
0 24 3 24 60 0 33 -3 59 -7 59 -5 -1 -29 -6 -54 -11z"/>
<path d="M13210 7299 c-13 -6 -31 -16 -40 -23 -8 -8 -34 -14 -57 -14 -40 1
-93 -23 -93 -41 0 -4 38 -11 85 -15 47 -3 100 -13 118 -21 l32 -15 -35 5 c-96
15 -181 17 -209 6 -61 -26 -64 -119 -5 -178 26 -27 40 -33 76 -33 24 0 50 6
56 12 7 7 53 16 101 19 120 8 175 37 179 93 7 77 -49 174 -115 201 -40 17 -58
18 -93 4z"/>
</g>
</svg>
